<?xml version="1.0" encoding="utf-8"?>
<!-- Generator: Adobe Illustrator 25.1.0, SVG Export Plug-In . SVG Version: 6.00 Build 0)  -->
<svg version="1.1" id="Layer_1" xmlns="http://www.w3.org/2000/svg" xmlns:xlink="http://www.w3.org/1999/xlink" x="0px" y="0px"
	 viewBox="0 0 870 270" style="enable-background:new 0 0 870 270;" xml:space="preserve">
<style type="text/css">
	.st0{fill:#FFFFFF;stroke:#2C3E50;stroke-width:6;stroke-miterlimit:10;}
	.st1{fill:#3079E1;}
	.st2{fill:#FFFFFF;}
	.st3{fill:none;stroke:#FFAB00;stroke-width:2;stroke-miterlimit:10;}
	.st4{fill:#2C3E50;}
	.st5{fill:#FFC043;}
	.st6{opacity:0.55;}
	.st7{fill:#FFAB00;}
	.st8{fill:#475577;}
	.st9{fill:#FFCD5C;stroke:#FFC043;stroke-width:2;stroke-linecap:round;stroke-linejoin:round;stroke-miterlimit:10;}
	.st10{clip-path:url(#SVGID_2_);}
	.st11{fill:url(#SVGID_3_);}
	.st12{fill:none;stroke:#F1537C;stroke-width:2;stroke-miterlimit:10;}
	.st13{fill:#F1537C;stroke:#F1537C;stroke-miterlimit:10;}
	.st14{fill:none;stroke:#1FBE6B;stroke-width:2;stroke-miterlimit:10;}
	.st15{fill:none;stroke:#2C3E50;stroke-width:2;stroke-miterlimit:10;}
	.st16{fill:#5ED092;enable-background:new    ;}
	.st17{fill:none;stroke:#2C3E50;stroke-width:1.1491;stroke-miterlimit:10;}
	.st18{fill:none;stroke:#2C3E50;stroke-width:1.1491;stroke-linecap:round;stroke-linejoin:round;stroke-miterlimit:10;}
	.st19{fill:none;stroke:#2C3E50;stroke-width:1.1434;stroke-miterlimit:10;}
	.st20{fill:none;stroke:#2C3E50;stroke-width:1.1434;stroke-linecap:round;stroke-linejoin:round;stroke-miterlimit:10;}
	.st21{fill:#F5F5F3;stroke:#2C3E50;stroke-width:1.1298;stroke-linecap:round;stroke-linejoin:round;stroke-miterlimit:10;}
	.st22{fill:#F5F5F3;stroke:#2C3E50;stroke-width:1.1298;stroke-miterlimit:10;}
	.st23{fill:#F5F5F3;stroke:#2C3E50;stroke-width:1.1491;stroke-miterlimit:10;}
	.st24{fill:none;stroke:#3079E1;stroke-width:2;stroke-miterlimit:10;enable-background:new    ;}
	.st25{fill:none;stroke:#7A68ED;stroke-width:2;stroke-miterlimit:10;}
	.st26{fill:#7A68ED;}
	.st27{fill:#1FBE6B;}
	.st28{fill:#F1537C;}
</style>
<g>
	<path class="st0" d="M20,143.6c34.3-6,68.6-12,103-18c0.9,0,1.8,0.2,2.6,0.7l91.5,52.9c1.7,1,3.8,0.9,5.5-0.1l98.1-62.9
		c1.4-0.9,3.2-1.1,4.8-0.5l87.5,34.5c1.7,0.7,3.6,0.4,5-0.6l82.2-58.8c2-1.4,4.7-1.3,6.5,0.3l102.6,91.6c2,1.7,5,1.7,7,0L751.5,58.2
		c1.6-1.5,4-1.8,5.9-0.8c28.9,15,57.8,30.1,86.7,45.1"/>
	<circle class="st1" cx="123.7" cy="126.4" r="13"/>
	<circle class="st2" cx="186" cy="188" r="14.9"/>
	<circle class="st1" cx="417" cy="148.4" r="13"/>
	<circle class="st1" cx="612" cy="183.2" r="13"/>
	<circle class="st1" cx="755.5" cy="56.6" r="13"/>
	<circle class="st1" cx="501.4" cy="90.5" r="13"/>
	<circle class="st2" cx="308.6" cy="111.4" r="14.9"/>
	<g>
		<g>
			<g>
				<path class="st3" d="M90.2,52.3c0-12.9,10.5-23.4,23.4-23.4c12.9,0,23.4,10.5,23.4,23.4c0,5.1-1.7,9.9-4.5,13.8h0
					c-3.3,5-12,10.7-12,14.1v3.9c0,0.8-0.6,1.4-1.4,1.4h-3.8h-3.5H108c-0.8,0-1.4-0.6-1.4-1.4v-3.9c0-3.4-8.7-9.1-12-14.1l0,0
					C91.8,62.2,90.2,57.5,90.2,52.3z"/>
			</g>
		</g>
		<g>
			<path class="st4" d="M116.2,85.1c0-0.6-0.4-10,0.3-18.2c-0.9,0.1-1.9,0.2-3,0.2c-1.1,0-2-0.1-3-0.2c0.8,8.2,0.3,17.6,0.3,18.2
				l-0.4,0c0-0.1,0.4-9.8-0.3-18.2c-6.9-1-10-4.9-10.6-8.6c-0.3-2.2,0.4-4.3,1.8-5.1c0.8-0.5,1.8-0.6,2.8-0.3
				c1.7,0.5,3.2,1.9,4.2,3.8c1.1,2.2,1.8,5.9,2.2,9.8c0.9,0.1,1.9,0.2,3,0.2c1.1,0,2.1-0.1,3-0.2c0.4-4,1.1-7.6,2.2-9.8
				c1-1.9,2.5-3.3,4.2-3.8c1-0.3,2-0.2,2.8,0.3c1.3,0.8,2.1,3,1.8,5.1c-0.6,3.7-3.7,7.6-10.6,8.6c-0.8,8.4-0.3,18.1-0.3,18.2
				L116.2,85.1z M124.1,53.1c-0.3,0-0.7,0.1-1,0.2c-1.5,0.4-3,1.8-3.9,3.6c-1.1,2.1-1.7,5.7-2.1,9.6c6.6-1,9.6-4.7,10.1-8.2
				c0.3-2-0.4-4-1.6-4.7C125.1,53.2,124.6,53.1,124.1,53.1z M103,53.1c-0.5,0-1,0.1-1.5,0.4c-1.2,0.7-1.9,2.7-1.6,4.7
				c0.5,3.5,3.5,7.3,10.1,8.2c-0.4-3.9-1-7.5-2.1-9.6c-0.9-1.8-2.4-3.2-3.9-3.6C103.7,53.2,103.3,53.1,103,53.1z"/>
		</g>
		<g>
			<path class="st5" d="M133,53.7c-0.7,0-1.3-0.6-1.3-1.3c0-8.3-5.6-15.5-13.7-17.6c-0.7-0.2-1.2-0.9-1-1.6c0.2-0.7,0.9-1.2,1.6-1
				c9.2,2.3,15.7,10.6,15.7,20.2C134.3,53.1,133.7,53.7,133,53.7z"/>
		</g>
		<g>
			<path class="st5" d="M113.1,32.8c0,0.7,0.6,1.3,1.3,1.3c0.7,0,1.3-0.6,1.3-1.3c0-0.7-0.6-1.3-1.3-1.3
				C113.7,31.5,113.1,32.1,113.1,32.8z"/>
		</g>
		<g class="st6">
			<g>
				<g>
					<path class="st7" d="M136.8,53.7c-1.3,9.6-9,19.5-23.3,19.5c-14.3,0-21.7-10.4-23.3-19.5c0.3,4.6,1.9,8.9,4.4,12.4l0,0
						c3.3,5,12,10.7,12,14.1v3.9c0,0.8,0.6,1.4,1.4,1.4h3.8h3.5h3.8c0.8,0,1.4-0.6,1.4-1.4v-3.9c0-3.4,8.7-9.1,12-14.1h0
						C135,62.6,136.6,58.3,136.8,53.7z"/>
				</g>
			</g>
		</g>
		<g>
			<path class="st4" d="M121,81.9h-14.9v7.1c0,1.2,0.3,2.3,0.9,3.3l0,0c1.2,1.8,3.2,3,5.4,3h2.2c2.2,0,4.2-1.1,5.4-3l0,0
				c0.6-1,0.9-2.1,0.9-3.3V81.9z"/>
		</g>
		<g>
			<g>
				<path class="st8" d="M106.1,86.6c0,0,0.1,0,0.1,0l14.9-1.5c0.5-0.1,0.9-0.5,0.8-1c-0.1-0.5-0.5-0.9-1-0.8L106,84.8
					c-0.5,0.1-0.9,0.5-0.8,1C105.2,86.3,105.6,86.6,106.1,86.6z"/>
			</g>
		</g>
		<g>
			<g>
				<path class="st8" d="M106.1,89.9c0,0,0.1,0,0.1,0l14.9-1.5c0.5-0.1,0.9-0.5,0.8-1c-0.1-0.5-0.5-0.9-1-0.8L106,88
					c-0.5,0.1-0.9,0.5-0.8,1C105.2,89.5,105.6,89.9,106.1,89.9z"/>
			</g>
		</g>
		<g>
			<g>
				<path class="st8" d="M106.7,93.1c0,0,0.1,0,0.1,0l14.1-1.5c0.5-0.1,0.9-0.5,0.8-1c-0.1-0.5-0.5-0.9-1-0.8l-14.1,1.5
					c-0.5,0.1-0.9,0.5-0.8,1C105.8,92.7,106.2,93.1,106.7,93.1z"/>
			</g>
		</g>
		<g>
			<line class="st9" x1="113.5" y1="16.5" x2="113.5" y2="23.9"/>
			<g>
				<line class="st9" x1="126.8" y1="19.5" x2="123.8" y2="26.2"/>
				<line class="st9" x1="137.9" y1="27.6" x2="132.5" y2="32.5"/>
				<line class="st9" x1="100.3" y1="19.5" x2="103.3" y2="26.2"/>
				<line class="st9" x1="89.1" y1="27.6" x2="94.6" y2="32.5"/>
			</g>
		</g>
	</g>
	<g>
		<g>
			<defs>
				
					<ellipse id="SVGID_1_" transform="matrix(0.7071 -0.7071 0.7071 0.7071 -25.4839 234.6861)" cx="270.5" cy="148.1" rx="63.1" ry="63.1"/>
			</defs>
			<clipPath id="SVGID_2_">
				<use xlink:href="#SVGID_1_"  style="overflow:visible;"/>
			</clipPath>
			<g class="st10">
				
					<linearGradient id="SVGID_3_" gradientUnits="userSpaceOnUse" x1="178.6377" y1="179.9228" x2="178.6377" y2="23.9512" gradientTransform="matrix(0.8781 0.4785 -0.4785 0.8781 159.0078 -37.1463)">
					<stop  offset="0" style="stop-color:#FFFFFF;stop-opacity:0.2"/>
					<stop  offset="0.6741" style="stop-color:#FFFFFF;stop-opacity:0.6265"/>
					<stop  offset="0.7903" style="stop-color:#FFFFFF;stop-opacity:0.7"/>
				</linearGradient>
				<path class="st11" d="M326.3,81.3c0,0-151.7,93.7-152.6,94.4l34.3,18.7L360.6,100L326.3,81.3z"/>
			</g>
		</g>
		
			<rect x="222.5" y="196.9" transform="matrix(0.8122 0.5834 -0.5834 0.8122 163.6394 -94.6437)" class="st7" width="12.7" height="20"/>
		<path class="st4" d="M311.2,91.6c-31.2-22.4-74.7-15.3-97.1,15.9c-22.4,31.2-15.3,74.7,15.9,97.1c31.2,22.4,74.7,15.3,97.1-15.9
			C349.5,157.5,342.4,114,311.2,91.6z M235.7,196.6c-26.8-19.2-32.9-56.5-13.7-83.3c19.2-26.8,56.5-32.9,83.3-13.7
			c26.8,19.2,32.9,56.5,13.7,83.3C299.8,209.7,262.5,215.8,235.7,196.6z"/>
		<path class="st12" d="M229.9,218.1l-12.4-8.7l-34.9,47.5c-2.4,3.3-1.6,7.8,1.8,10.2l0,0c3.4,2.3,8,1.6,10.4-1.6L229.9,218.1z"/>
	</g>
	<circle class="st2" cx="270.3" cy="148.2" r="61.2"/>
	<g>
		
			<ellipse transform="matrix(0.9226 -0.3857 0.3857 0.9226 -24.8886 277.3396)" class="st12" cx="678.7" cy="200.7" rx="25.6" ry="25.6"/>
		
			<ellipse transform="matrix(0.9751 -0.2216 0.2216 0.9751 -27.5987 155.376)" class="st12" cx="678.7" cy="200.7" rx="18.5" ry="18.5"/>
		<path class="st12" d="M666,200.7c0,7,5.7,12.7,12.7,12.7c7,0,12.7-5.7,12.7-12.7c0-7-5.7-12.7-12.7-12.7
			C671.7,188,666,193.7,666,200.7z"/>
		<path class="st13" d="M672,200.7c0,3.7,3,6.7,6.7,6.7c3.7,0,6.7-3,6.7-6.7c0-3.7-3-6.7-6.7-6.7C675,194,672,197,672,200.7z"/>
		<g>
			<g>
				<polygon class="st4" points="677.7,201.7 681.9,201.7 677.7,197.5 				"/>
			</g>
			<g>
				<polygon class="st4" points="704.8,174.6 709.6,174.6 709.6,173.4 706,173.4 706,169.8 704.8,169.8 				"/>
			</g>
			<g>
				<polygon class="st4" points="707,172.4 711.8,172.4 711.8,171.2 708.2,171.2 708.2,167.6 707,167.6 				"/>
			</g>
			<g>
				
					<rect x="672.9" y="185.5" transform="matrix(0.7071 -0.7071 0.7071 0.7071 71.4864 544.7444)" class="st4" width="40.9" height="1.2"/>
			</g>
		</g>
	</g>
	<g>
		<path class="st14" d="M527.8,57.1c1-1.7,1.7-3.5,2.3-5.4c0.6-1.9,0.9-3.9,1-5.8l-5.3-0.7c0-1.8-0.2-3.6-0.6-5.3l5-1.9
			c-1.1-3.8-3-7.4-5.7-10.3l-4.3,3.3c-1.2-1.3-2.6-2.4-4.1-3.3l2.2-4.9c-1.7-1-3.5-1.7-5.4-2.3c-1.9-0.6-3.9-0.9-5.8-1l-0.7,5.3
			c-1.8,0-3.6,0.2-5.3,0.6l-1.9-5c-3.8,1.1-7.4,3-10.3,5.7l3.3,4.3c-1.3,1.2-2.4,2.6-3.3,4.1l-4.9-2.2c-1,1.7-1.7,3.5-2.3,5.4
			c-0.6,1.9-0.9,3.9-1,5.8l5.3,0.7c0,1.8,0.2,3.6,0.6,5.3l-5,1.9c1.1,3.8,3,7.4,5.7,10.3l4.3-3.2c1.2,1.3,2.6,2.4,4.1,3.3l-2.2,4.9
			c1.7,1,3.5,1.7,5.4,2.3c1.9,0.6,3.9,0.9,5.8,1l0.7-5.3c1.8,0,3.6-0.2,5.3-0.6l1.9,5c3.8-1.1,7.4-3,10.3-5.7l-3.3-4.3
			c1.3-1.2,2.4-2.6,3.3-4.1L527.8,57.1z M502.3,56.8c-6.8-2-10.6-9-8.7-15.8c2-6.8,9-10.6,15.8-8.7c6.8,2,10.6,9,8.7,15.8
			S509.1,58.8,502.3,56.8z M503.2,53.6c-5-1.4-7.9-6.7-6.4-11.6c1.4-5,6.7-7.9,11.6-6.4c5,1.4,7.9,6.7,6.4,11.6
			C513.4,52.2,508.2,55,503.2,53.6z"/>
	</g>
	<g>
		<path class="st7" d="M550.6,66.4c-0.1-0.9-0.2-1.8-0.5-2.8c-0.3-0.9-0.7-1.8-1.2-2.6l-2.3,1.1c-0.5-0.7-1-1.4-1.6-1.9l1.5-2.1
			c-1.4-1.2-3.1-2.1-5-2.6l-0.8,2.4c-0.8-0.2-1.7-0.3-2.5-0.2l-0.4-2.5c-0.9,0.1-1.8,0.2-2.8,0.5c-0.9,0.3-1.8,0.7-2.6,1.2l1.1,2.3
			c-0.7,0.5-1.4,1-1.9,1.6l-2.1-1.5c-1.2,1.4-2.1,3.1-2.6,5l2.4,0.8c-0.2,0.8-0.3,1.7-0.2,2.5l-2.5,0.4c0.1,0.9,0.2,1.8,0.5,2.8
			c0.3,0.9,0.7,1.8,1.2,2.6l2.3-1.1c0.5,0.7,1,1.4,1.6,1.9l-1.5,2.1c1.4,1.2,3.1,2.1,5,2.6l0.8-2.4c0.8,0.2,1.7,0.3,2.5,0.2l0.4,2.5
			c0.9-0.1,1.8-0.2,2.8-0.5c0.9-0.3,1.8-0.7,2.6-1.2l-1.1-2.3c0.7-0.5,1.4-1,1.9-1.6l2.1,1.5c1.2-1.4,2.1-3.1,2.6-5l-2.4-0.8
			c0.2-0.8,0.3-1.7,0.2-2.5L550.6,66.4z M540.2,72.2c-2.7,0.9-5.5-0.6-6.4-3.3c-0.9-2.7,0.6-5.5,3.3-6.4c2.7-0.9,5.5,0.6,6.4,3.3
			C544.3,68.4,542.9,71.3,540.2,72.2z"/>
	</g>
	<g>
		<path class="st15" d="M808.3,35.1H803c-0.7,0-1.3,0.6-1.3,1.3v13.2c0,0.7,0.6,1.3,1.3,1.3h5.3c0.7,0,1.3-0.6,1.3-1.3V36.4
			C809.6,35.7,809,35.1,808.3,35.1z M821.5,24.5h-5.3c-0.7,0-1.3,0.6-1.3,1.3v23.7c0,0.7,0.6,1.3,1.3,1.3h5.3c0.7,0,1.3-0.6,1.3-1.3
			V25.9C822.8,25.1,822.2,24.5,821.5,24.5z M795.1,24.5h-5.3c-0.7,0-1.3,0.6-1.3,1.3v23.7c0,0.7,0.6,1.3,1.3,1.3h5.3
			c0.7,0,1.3-0.6,1.3-1.3V25.9C796.4,25.1,795.9,24.5,795.1,24.5z M781.9,37.7h-5.3c-0.7,0-1.3,0.6-1.3,1.3v10.6
			c0,0.7,0.6,1.3,1.3,1.3h5.3c0.7,0,1.3-0.6,1.3-1.3V39C783.3,38.3,782.7,37.7,781.9,37.7z"/>
		<polyline class="st15" points="779.2,26 792.7,12.5 805.8,23.4 819.2,12.9 		"/>
		<circle class="st16" cx="779.2" cy="26" r="3.2"/>
		<circle class="st16" cx="792.6" cy="12.7" r="3.2"/>
		<circle class="st16" cx="806" cy="23.7" r="3.2"/>
		<circle class="st16" cx="819.9" cy="12.5" r="3.2"/>
	</g>
	<g>
		<g>
			<g>
				<path class="st17" d="M261.2,138.8c0,0-1-1.5-2.2-0.8c-1.2,0.7-0.8,3.3,0,4.6c0.8,1.3,2.1,2,2.9,1"/>
			</g>
			<path class="st17" d="M280.6,135.5c0,0,1.2,17.9-9.6,17.9c-10.8,0-9.9-17.9-9.9-17.9s-0.5-10.6,10.3-10.6
				C281.5,124.9,280.6,135.5,280.6,135.5z"/>
			<g>
				<path class="st17" d="M280.6,139c0,0,1-1.5,2.2-0.8c1.2,0.7,0.8,3.3,0,4.6c-0.8,1.3-2.1,2-2.9,1"/>
			</g>
			<path class="st4" d="M273.1,120.2c-6.1,0.1-8.2,4-8.3,4.1c0,0,0,0,0,0c-0.2-0.1-3.6-1.2-5.2,2.2c-1.4,2.9,0.2,8.3,0.8,10.1
				c0.2,0.8,0.4,1.6,0.6,2.4l0.9-6.4c0.1-0.8,0.4-1.5,0.8-2.1c0.5-0.8,2.4-3.5,5.2-1.6c3.1,2.1,6.7,5.2,11.8,2.4l0.9,8.3
				c0.5-1.5,0.9-3,1.2-4.5l0,0C285.5,123.5,278.1,120.1,273.1,120.2z"/>
		</g>
		<g>
			<g>
				<line class="st18" x1="264.4" y1="150.3" x2="264.4" y2="157.8"/>
				<line class="st18" x1="277.8" y1="149.9" x2="277.8" y2="157.8"/>
			</g>
			<g>
				<path class="st18" d="M246.6,176.4c0-5.7,4-10,7.2-12.4c1.6-1.3,3.5-2.3,5.5-2.9c1.7-0.6,4.1-1.6,5.2-3.3c0,0,5.8,5.8,13.3,0
					c0,0,3.5,2.7,5.2,3.3c2,0.6,3.8,1.6,5.5,2.9c3.1,2.5,7.2,6.7,7.2,12.4"/>
				<path class="st18" d="M261.9,160c0,0,7.4,9.4,19.2,0.1"/>
				<line class="st18" x1="250.9" y1="166.7" x2="291.3" y2="166.7"/>
				<line class="st18" x1="246.9" y1="174.8" x2="295.4" y2="174.8"/>
				<line class="st18" x1="248.1" y1="170.8" x2="294.3" y2="170.8"/>
			</g>
		</g>
	</g>
	<g>
		<g>
			<g>
				<path class="st19" d="M242.7,125.8c0,0,0.8,12.4-6.6,12.4c-7.5,0-6.9-12.4-6.9-12.4s-0.4-7.3,7.1-7.3
					C243.2,118.5,242.7,125.8,242.7,125.8z"/>
				<g>
					<path class="st19" d="M242.7,128.3c0,0,0.7-1,1.5-0.5c0.8,0.5,0.6,2.3,0,3.2c-0.6,0.9-1.5,1.4-2,0.7"/>
				</g>
				<g>
					<path class="st19" d="M229.2,128.3c0,0-0.7-1-1.5-0.5c-0.8,0.5-0.6,2.3,0,3.2c0.6,0.9,1.5,1.4,2,0.7"/>
				</g>
				<path class="st4" d="M235.9,117c-9.1,0-8.2,6.2-6.8,11.1c0,0,1.2-2.3,1-3.9c5.2-0.6,9.8-3.4,9.8-3.5c0.4,2.8,2.8,7,2.8,7
					C244.1,123.2,245.5,117,235.9,117z"/>
			</g>
		</g>
		<g>
			<g>
				<path class="st20" d="M253.4,154.1c0-6.5-7.5-10.3-7.5-10.3h-9h-1.4h-9c0,0-7.5,3.8-7.5,10.3"/>
				<polygon class="st4" points="251,148 221.5,148 223.1,146.3 249.4,146.3 				"/>
				<polygon class="st4" points="253.1,151.9 219.3,151.9 220.1,150.2 252.3,150.2 				"/>
			</g>
			<g>
				<path class="st20" d="M231.5,136v5.2c0,0-1.1,2-4.9,2.6h19.1c0,0-4.8-1-5.1-2.6V136"/>
			</g>
		</g>
	</g>
	<g>
		<g>
			<path class="st4" d="M318.7,126.3c-1.4-1.7-2.5-3.6-3.5-6.3c-1-2.9-4.4-1.7-4.4-1.7s-2.8-3.6-7.1-2.4c-4.2,1.3-5.7,4.3-5.8,7.9
				c-0.1,3.6-2.9,4.2-5.1,8.3c-3.8,7.3,2.6,13.5,14.4,11.8l0-0.1c1.2,0.4,2.6,0.5,4.3,0.4C325.7,143.3,324.3,132.9,318.7,126.3z"/>
			<g>
				<path class="st18" d="M298.5,144.2c0,0-7.8,3.9-7.8,10.6h15.9h1.4h15.6c0-6.7-8.1-10.6-8.1-10.6"/>
				<g>
					<path class="st21" d="M303.8,137v4.5c0,0-1.5,2-5.3,2.7c0,0,2.3,1.5,8.7,1.5c4.5,0,8.4-1.5,8.4-1.5s-5-1-5.3-2.7V137"/>
				</g>
			</g>
		</g>
		<g>
			<path class="st22" d="M313.9,125.5c0,0,0.9,12.4-6.9,12.4s-7.1-12.4-7.1-12.4s-0.4-7.4,7.4-7.4
				C314.5,118.2,313.9,125.5,313.9,125.5z"/>
			<g>
				<path class="st23" d="M313.4,131.8c0.5,0.7,1.5,0.2,2.1-0.7c0.6-0.9,0.9-2.8,0-3.3c-0.9-0.5-1.6,0.5-1.6,0.5s-0.2,1.9-0.4,2.6
					L313.4,131.8z"/>
			</g>
			<g>
				<path class="st23" d="M300.5,131.8c-0.5,0.7-1.5,0.2-2.1-0.7c-0.6-0.9-0.9-2.8,0-3.3c0.9-0.5,1.6,0.5,1.6,0.5s0.2,1.9,0.4,2.6
					L300.5,131.8z"/>
			</g>
			<path class="st4" d="M313.9,124.9c0-0.6-0.1-1.5-0.4-2.3c-0.1-0.2-0.1-0.4-0.2-0.6l0.3,0.1c-0.3-2-4.8-6.9-10.4-4.1
				c-5.6,2.8-3.5,10.2-3.5,10.2l0.1-0.4c0.2-0.3,1.2-1.8,1.6-3.6c3.9,0.6,6.9-1.6,8.4-3.1c0.2,0.8,0.8,2.4,2.5,3.5
				c0.5,2.1,1.6,3.4,1.6,3.4C314,126.9,314,125.9,313.9,124.9z"/>
		</g>
	</g>
	<path class="st24" d="M301.7,40.2c1,0,1.8,0.9,1.7,1.9c-1.8,12.5-12.7,22.1-25.8,21.6c-13-0.4-23.9-11.3-24.3-24.3
		c-0.4-13.1,9.1-24,21.6-25.8c1-0.1,1.9,0.7,1.9,1.7v24.9H301.7z"/>
	<path class="st1" d="M307,33.4c0.1,1-0.7,1.8-1.7,1.8h-23.5V11.6c0-1,0.8-1.8,1.8-1.7C296.1,10.8,306.1,20.8,307,33.4z"/>
	<g>
		<path class="st3" d="M406.1,198.6c-0.5,1.4-1.2,2.7-2.2,3.8l7.5,10.5c3.8-3.3,6.5-7.7,7.5-12.8L406.1,198.6z"/>
		<path class="st25" d="M398.5,185.3c4.4,0.9,7.7,4.6,8.1,9.1l12.8,1.4c0-0.1,0-0.3,0-0.4c0-12-9.2-21.9-20.9-22.9V185.3z"/>
		<path class="st12" d="M388.8,188.5c1.4-1.6,3.3-2.7,5.5-3.2v-12.8c-6.8,0.6-12.8,4.2-16.6,9.5L388.8,188.5z"/>
		<path class="st14" d="M400.6,204.8c-1.3,0.6-2.7,0.9-4.2,0.9c-5.7,0-10.3-4.6-10.3-10.3c0-1.2,0.2-2.3,0.6-3.3l-11.1-6.5
			c-1.4,3-2.2,6.3-2.2,9.8c0,12.7,10.3,23,23,23c4.2,0,8.2-1.2,11.6-3.2L400.6,204.8z"/>
	</g>
	<g>
		<rect x="443.2" y="177.2" class="st7" width="13" height="10"/>
		<line class="st15" x1="466" y1="183.3" x2="510.8" y2="183.3"/>
	</g>
	<g>
		<rect x="443.2" y="198.1" class="st26" width="13" height="10"/>
		<line class="st15" x1="466" y1="204.2" x2="525" y2="204.2"/>
	</g>
	<g>
		<rect x="443.2" y="219.9" class="st27" width="13" height="10"/>
		<line class="st15" x1="466" y1="226" x2="502.4" y2="226"/>
	</g>
	<g>
		<rect x="443.2" y="239.2" class="st28" width="13" height="10"/>
		<line class="st15" x1="466" y1="245.3" x2="510.8" y2="245.3"/>
	</g>
</g>
<g>
</g>
<g>
</g>
<g>
</g>
<g>
</g>
<g>
</g>
<g>
</g>
<g>
</g>
<g>
</g>
<g>
</g>
<g>
</g>
<g>
</g>
<g>
</g>
<g>
</g>
<g>
</g>
<g>
</g>
</svg>
